<mxfile host="65bd71144e">
    <diagram name="Page-1" id="kwY1cZwPbfxqEKFPwUhP">
        <mxGraphModel dx="554" dy="480" grid="1" gridSize="10" guides="1" tooltips="1" connect="1" arrows="1" fold="1" page="1" pageScale="1" pageWidth="850" pageHeight="1100" math="0" shadow="0">
            <root>
                <mxCell id="0"/>
                <mxCell id="1" parent="0"/>
                <mxCell id="BPn65qCfY8uFDgFK0Msq-1" value="&lt;font face=&quot;Times New Roman&quot;&gt;User&lt;/font&gt;" style="shape=umlActor;verticalLabelPosition=bottom;verticalAlign=top;html=1;outlineConnect=0;" parent="1" vertex="1">
                    <mxGeometry x="110" y="340" width="30" height="60" as="geometry"/>
                </mxCell>
                <mxCell id="BPn65qCfY8uFDgFK0Msq-2" value="&lt;font face=&quot;Times New Roman&quot;&gt;Upload Queries/Post&lt;/font&gt;" style="ellipse;whiteSpace=wrap;html=1;" parent="1" vertex="1">
                    <mxGeometry x="210" y="250" width="100" height="50" as="geometry"/>
                </mxCell>
                <mxCell id="BPn65qCfY8uFDgFK0Msq-3" value="&lt;font face=&quot;Times New Roman&quot;&gt;Interact with other users&lt;/font&gt;" style="ellipse;whiteSpace=wrap;html=1;" parent="1" vertex="1">
                    <mxGeometry x="210" y="320" width="100" height="50" as="geometry"/>
                </mxCell>
                <mxCell id="BPn65qCfY8uFDgFK0Msq-4" value="&lt;font face=&quot;Times New Roman&quot;&gt;Obtain&lt;br&gt;&amp;nbsp;Articles&lt;/font&gt;" style="ellipse;whiteSpace=wrap;html=1;" parent="1" vertex="1">
                    <mxGeometry x="210" y="390" width="100" height="50" as="geometry"/>
                </mxCell>
                <mxCell id="BPn65qCfY8uFDgFK0Msq-5" value="" style="endArrow=none;html=1;rounded=0;exitX=1;exitY=0.3333333333333333;exitDx=0;exitDy=0;exitPerimeter=0;entryX=0;entryY=0.5;entryDx=0;entryDy=0;" parent="1" source="BPn65qCfY8uFDgFK0Msq-1" target="BPn65qCfY8uFDgFK0Msq-4" edge="1">
                    <mxGeometry width="50" height="50" relative="1" as="geometry">
                        <mxPoint x="350" y="360" as="sourcePoint"/>
                        <mxPoint x="400" y="310" as="targetPoint"/>
                    </mxGeometry>
                </mxCell>
                <mxCell id="BPn65qCfY8uFDgFK0Msq-6" value="" style="endArrow=none;html=1;rounded=0;exitX=1;exitY=0.3333333333333333;exitDx=0;exitDy=0;exitPerimeter=0;entryX=0;entryY=0.5;entryDx=0;entryDy=0;" parent="1" source="BPn65qCfY8uFDgFK0Msq-1" target="BPn65qCfY8uFDgFK0Msq-3" edge="1">
                    <mxGeometry width="50" height="50" relative="1" as="geometry">
                        <mxPoint x="160" y="290" as="sourcePoint"/>
                        <mxPoint x="220" y="385" as="targetPoint"/>
                    </mxGeometry>
                </mxCell>
                <mxCell id="BPn65qCfY8uFDgFK0Msq-7" value="" style="endArrow=none;html=1;rounded=0;exitX=1;exitY=0.3333333333333333;exitDx=0;exitDy=0;exitPerimeter=0;entryX=0;entryY=0.5;entryDx=0;entryDy=0;" parent="1" source="BPn65qCfY8uFDgFK0Msq-1" target="BPn65qCfY8uFDgFK0Msq-2" edge="1">
                    <mxGeometry width="50" height="50" relative="1" as="geometry">
                        <mxPoint x="160" y="290" as="sourcePoint"/>
                        <mxPoint x="220" y="315" as="targetPoint"/>
                    </mxGeometry>
                </mxCell>
                <mxCell id="BPn65qCfY8uFDgFK0Msq-9" value="&lt;font face=&quot;Times New Roman&quot;&gt;Participate on events&lt;/font&gt;" style="ellipse;whiteSpace=wrap;html=1;" parent="1" vertex="1">
                    <mxGeometry x="375" y="320" width="100" height="50" as="geometry"/>
                </mxCell>
                <mxCell id="BPn65qCfY8uFDgFK0Msq-11" value="&lt;font face=&quot;Times New Roman&quot;&gt;Leaving &lt;br&gt;Reviews&lt;/font&gt;" style="ellipse;whiteSpace=wrap;html=1;" parent="1" vertex="1">
                    <mxGeometry x="375" y="390" width="100" height="50" as="geometry"/>
                </mxCell>
                <mxCell id="BPn65qCfY8uFDgFK0Msq-12" value="&lt;font face=&quot;Times New Roman&quot;&gt;Maintain&lt;br&gt;&amp;nbsp;Fair Use&lt;/font&gt;" style="ellipse;whiteSpace=wrap;html=1;" parent="1" vertex="1">
                    <mxGeometry x="490" y="250" width="100" height="50" as="geometry"/>
                </mxCell>
                <mxCell id="BPn65qCfY8uFDgFK0Msq-13" value="&lt;font face=&quot;Times New Roman&quot;&gt;Removing &lt;br&gt;Violators&lt;/font&gt;" style="ellipse;whiteSpace=wrap;html=1;" parent="1" vertex="1">
                    <mxGeometry x="425" y="160" width="100" height="50" as="geometry"/>
                </mxCell>
                <mxCell id="BPn65qCfY8uFDgFK0Msq-14" value="&lt;font face=&quot;Times New Roman&quot;&gt;Enforcing&lt;br&gt;&amp;nbsp;Rules&lt;/font&gt;" style="ellipse;whiteSpace=wrap;html=1;" parent="1" vertex="1">
                    <mxGeometry x="560" y="160" width="100" height="50" as="geometry"/>
                </mxCell>
                <mxCell id="BPn65qCfY8uFDgFK0Msq-15" value="&lt;font face=&quot;Times New Roman&quot;&gt;Manage &lt;br&gt;Posts&lt;/font&gt;" style="ellipse;whiteSpace=wrap;html=1;" parent="1" vertex="1">
                    <mxGeometry x="490" y="320" width="100" height="50" as="geometry"/>
                </mxCell>
                <mxCell id="BPn65qCfY8uFDgFK0Msq-16" value="&lt;font face=&quot;Times New Roman&quot;&gt;Create &lt;br&gt;Events&lt;/font&gt;" style="ellipse;whiteSpace=wrap;html=1;" parent="1" vertex="1">
                    <mxGeometry x="490" y="400" width="100" height="50" as="geometry"/>
                </mxCell>
                <mxCell id="BPn65qCfY8uFDgFK0Msq-17" value="&lt;font face=&quot;Times New Roman&quot;&gt;Setting &lt;br&gt;Locations&lt;/font&gt;" style="ellipse;whiteSpace=wrap;html=1;" parent="1" vertex="1">
                    <mxGeometry x="490" y="470" width="100" height="50" as="geometry"/>
                </mxCell>
                <mxCell id="BPn65qCfY8uFDgFK0Msq-18" value="&lt;font face=&quot;Times New Roman&quot;&gt;Community Admin&lt;/font&gt;" style="shape=umlActor;verticalLabelPosition=bottom;verticalAlign=top;html=1;outlineConnect=0;" parent="1" vertex="1">
                    <mxGeometry x="700" y="340" width="30" height="60" as="geometry"/>
                </mxCell>
                <mxCell id="BPn65qCfY8uFDgFK0Msq-22" value="" style="endArrow=none;html=1;rounded=0;entryX=1;entryY=0.5;entryDx=0;entryDy=0;exitX=0;exitY=0.3333333333333333;exitDx=0;exitDy=0;exitPerimeter=0;" parent="1" source="BPn65qCfY8uFDgFK0Msq-18" target="BPn65qCfY8uFDgFK0Msq-12" edge="1">
                    <mxGeometry width="50" height="50" relative="1" as="geometry">
                        <mxPoint x="270" y="400" as="sourcePoint"/>
                        <mxPoint x="320" y="350" as="targetPoint"/>
                    </mxGeometry>
                </mxCell>
                <mxCell id="BPn65qCfY8uFDgFK0Msq-23" value="" style="endArrow=none;html=1;rounded=0;entryX=1;entryY=0.5;entryDx=0;entryDy=0;exitX=0;exitY=0.3333333333333333;exitDx=0;exitDy=0;exitPerimeter=0;" parent="1" source="BPn65qCfY8uFDgFK0Msq-18" target="BPn65qCfY8uFDgFK0Msq-15" edge="1">
                    <mxGeometry width="50" height="50" relative="1" as="geometry">
                        <mxPoint x="660" y="340" as="sourcePoint"/>
                        <mxPoint x="600" y="285" as="targetPoint"/>
                    </mxGeometry>
                </mxCell>
                <mxCell id="BPn65qCfY8uFDgFK0Msq-24" value="" style="endArrow=none;html=1;rounded=0;entryX=1;entryY=0.5;entryDx=0;entryDy=0;exitX=0;exitY=0.3333333333333333;exitDx=0;exitDy=0;exitPerimeter=0;" parent="1" source="BPn65qCfY8uFDgFK0Msq-18" target="BPn65qCfY8uFDgFK0Msq-16" edge="1">
                    <mxGeometry width="50" height="50" relative="1" as="geometry">
                        <mxPoint x="700" y="330" as="sourcePoint"/>
                        <mxPoint x="600" y="355" as="targetPoint"/>
                    </mxGeometry>
                </mxCell>
                <mxCell id="BPn65qCfY8uFDgFK0Msq-25" value="" style="endArrow=none;html=1;rounded=0;entryX=1;entryY=0.5;entryDx=0;entryDy=0;exitX=0;exitY=0.3333333333333333;exitDx=0;exitDy=0;exitPerimeter=0;" parent="1" source="BPn65qCfY8uFDgFK0Msq-18" target="BPn65qCfY8uFDgFK0Msq-17" edge="1">
                    <mxGeometry width="50" height="50" relative="1" as="geometry">
                        <mxPoint x="710" y="340" as="sourcePoint"/>
                        <mxPoint x="610" y="365" as="targetPoint"/>
                    </mxGeometry>
                </mxCell>
                <mxCell id="BPn65qCfY8uFDgFK0Msq-27" value="" style="rounded=0;whiteSpace=wrap;html=1;fillColor=none;" parent="1" vertex="1">
                    <mxGeometry x="200" y="140" width="470" height="390" as="geometry"/>
                </mxCell>
                <mxCell id="2" value="&amp;lt;&amp;lt;extends&amp;gt;&amp;gt;" style="endArrow=classic;html=1;dashed=1;dashPattern=8 8;fontFamily=Times New Roman;entryX=1;entryY=0.5;entryDx=0;entryDy=0;exitX=0;exitY=0.5;exitDx=0;exitDy=0;fontSize=9;" parent="1" source="BPn65qCfY8uFDgFK0Msq-9" target="BPn65qCfY8uFDgFK0Msq-3" edge="1">
                    <mxGeometry x="-0.2308" y="5" width="50" height="50" relative="1" as="geometry">
                        <mxPoint x="395.0763665111386" y="240.00111274177252" as="sourcePoint"/>
                        <mxPoint x="350" y="284.4699999999999" as="targetPoint"/>
                        <mxPoint as="offset"/>
                    </mxGeometry>
                </mxCell>
                <mxCell id="3" value="&amp;lt;&amp;lt;extends&amp;gt;&amp;gt;" style="endArrow=classic;html=1;dashed=1;dashPattern=8 8;fontFamily=Times New Roman;entryX=1;entryY=0.5;entryDx=0;entryDy=0;exitX=0;exitY=0.5;exitDx=0;exitDy=0;fontSize=9;" parent="1" source="BPn65qCfY8uFDgFK0Msq-11" target="BPn65qCfY8uFDgFK0Msq-4" edge="1">
                    <mxGeometry x="-0.2308" y="5" width="50" height="50" relative="1" as="geometry">
                        <mxPoint x="364.99999999999886" y="390.0000000000001" as="sourcePoint"/>
                        <mxPoint x="300.0000000000001" y="390.0000000000001" as="targetPoint"/>
                        <mxPoint as="offset"/>
                    </mxGeometry>
                </mxCell>
                <mxCell id="4" value="&amp;lt;&amp;lt;includes&amp;gt;&amp;gt;" style="endArrow=classic;html=1;dashed=1;dashPattern=8 8;fontFamily=Times New Roman;entryX=1;entryY=1;entryDx=0;entryDy=0;exitX=0.5;exitY=0;exitDx=0;exitDy=0;fontSize=9;" parent="1" source="BPn65qCfY8uFDgFK0Msq-12" target="BPn65qCfY8uFDgFK0Msq-13" edge="1">
                    <mxGeometry x="0.0102" y="9" width="50" height="50" relative="1" as="geometry">
                        <mxPoint x="394.99999999999886" y="365.0000000000001" as="sourcePoint"/>
                        <mxPoint x="330.0000000000001" y="365.0000000000001" as="targetPoint"/>
                        <mxPoint as="offset"/>
                    </mxGeometry>
                </mxCell>
                <mxCell id="5" value="&amp;lt;&amp;lt;includes&amp;gt;&amp;gt;" style="endArrow=classic;html=1;dashed=1;dashPattern=8 8;fontFamily=Times New Roman;entryX=0;entryY=1;entryDx=0;entryDy=0;exitX=0.5;exitY=0;exitDx=0;exitDy=0;fontSize=9;" parent="1" source="BPn65qCfY8uFDgFK0Msq-12" target="BPn65qCfY8uFDgFK0Msq-14" edge="1">
                    <mxGeometry x="0.3659" y="-9" width="50" height="50" relative="1" as="geometry">
                        <mxPoint x="550" y="259.99999999999994" as="sourcePoint"/>
                        <mxPoint x="525.5093906226838" y="212.60030665646065" as="targetPoint"/>
                        <mxPoint as="offset"/>
                    </mxGeometry>
                </mxCell>
            </root>
        </mxGraphModel>
    </diagram>
</mxfile>